<?xml version="1.0" encoding="utf-8"?>
<!-- Generator: Adobe Illustrator 24.2.1, SVG Export Plug-In . SVG Version: 6.00 Build 0)  -->
<svg version="1.1" xmlns="http://www.w3.org/2000/svg" xmlns:xlink="http://www.w3.org/1999/xlink" x="0px" y="0px"
	 viewBox="0 0 720 720" style="enable-background:new 0 0 720 720;" xml:space="preserve">
<style type="text/css">
	.st0{fill:#003A70;}
	.st1{fill:#E4002B;}
</style>
<g id="iNet_Blue">
	<g>
		<g>
			<polygon class="st0" points="243.2,349.4 243.2,368.4 259.7,377.9 276.1,368.4 276.1,349.4 259.7,339.9 			"/>
			<polygon class="st0" points="376.5,444.5 327.8,367.1 299.4,367.1 299.4,495.9 330.9,495.9 330.9,419.3 379.5,495.9 408,495.9 
				408,367.1 376.5,367.1 			"/>
			<rect x="243.2" y="399.1" class="st0" width="32.9" height="96.8"/>
			<path class="st0" d="M595.2,427.4v-27.1h-19.4v-29l-28.2,8.5v20.5h-15v27.1h15v37.2c0,26.3,10.7,37.4,47.6,33.7v-25.6
				c-12.4,0.8-19.4,0-19.4-8.1v-37.2H595.2z"/>
			<path class="st0" d="M474.3,396c-30.8,0-51.9,22.4-51.9,51.5s20.7,51.5,54.1,51.5c18.5,0,33-6.8,42.5-20.1l-23.3-13.4
				c-4.4,4.9-11.1,7.5-19.8,7.5c-9.8,0-19.6-4-23.4-14.9h47.4c0,0,0,0,0,0h23c0.6-3.4,1-6.9,1-10.7C523.9,418,502.8,396,474.3,396z
				 M452.8,437.3c2.7-10,10.1-15.4,21.3-15.4c8.8,0,17.6,4.1,20.7,15.4H452.8z"/>
		</g>
	</g>
	<g>
		<path class="st1" d="M153.1,284.7c3.6,2.9,8.9,2.3,11.8-1.3c2.9-3.6,2.3-8.9-1.3-11.8c-3.6-2.9-8.9-2.3-11.8,1.3
			S149.5,281.9,153.1,284.7z"/>
		<path class="st1" d="M135.2,322c-4.5-1-9,1.8-10,6.3c-1,4.5,1.8,9,6.3,10c4.5,1,9-1.8,10-6.3C142.5,327.5,139.7,323,135.2,322z"/>
		<path class="st1" d="M207,249.7L207,249.7c4.2-2,5.9-7,3.9-11.2c-2-4.2-7-5.9-11.2-3.9v0c-4.2,2-5.9,7-3.9,11.2
			C197.8,250,202.8,251.8,207,249.7z"/>
		<path class="st1" d="M312.1,249.6c4.2,2,9.2,0.3,11.2-3.9c2-4.2,0.3-9.2-3.9-11.2c-4.2-2-9.2-0.3-11.2,3.9
			C306.2,242.6,308,247.6,312.1,249.6z"/>
		<path class="st1" d="M366.1,284.5c3.6-2.9,4.2-8.1,1.3-11.8c-2.9-3.6-8.1-4.2-11.8-1.3c-3.6,2.9-4.2,8.1-1.3,11.8
			S362.5,287.4,366.1,284.5z"/>
		<path class="st1" d="M259.5,237.7c4.6,0,8.4-3.8,8.4-8.4c0-4.6-3.8-8.4-8.4-8.4c-4.6,0-8.4,3.8-8.4,8.4
			C251.2,234,254.9,237.7,259.5,237.7z"/>
		<path class="st1" d="M387.8,338c4.5-1,7.3-5.5,6.3-10c-1-4.5-5.5-7.3-10-6.3c-4.5,1-7.3,5.5-6.3,10
			C378.8,336.2,383.3,339,387.8,338z"/>
		<path class="st1" d="M339.8,332.7c1.6,5,7,7.7,11.9,6.1c5-1.6,7.7-7,6.1-11.9c-1.6-5-7-7.7-11.9-6.1
			C340.9,322.3,338.2,327.7,339.8,332.7L339.8,332.7z"/>
		<path class="st1" d="M161.4,327c-1.6,5,1.1,10.3,6.1,11.9c5,1.6,10.3-1.1,11.9-6.1c1.6-5-1.1-10.3-6.1-11.9
			C168.4,319.3,163,322.1,161.4,327z"/>
		<path class="st1" d="M309.1,290.6c4.2,3.1,10.2,2.1,13.2-2.1c3.1-4.2,2.1-10.2-2.1-13.2c-4.2-3.1-10.2-2.1-13.2,2.1
			C303.9,281.6,304.9,287.5,309.1,290.6z"/>
		<path class="st1" d="M259.6,274.6c5.2,0,9.5-4.3,9.5-9.5c0-5.2-4.3-9.5-9.5-9.5c-5.2,0-9.5,4.3-9.5,9.5
			C250.1,270.3,254.3,274.6,259.6,274.6z"/>
		<path class="st1" d="M210,290.7c4.2-3.1,5.2-9,2.1-13.2c-3.1-4.2-9-5.2-13.2-2.1v0c-4.2,3.1-5.2,9-2.1,13.2
			C199.9,292.9,205.8,293.8,210,290.7z"/>
		<path class="st1" d="M207.2,468.1c-4.2-2-9.2-0.3-11.2,3.9c-2,4.2-0.3,9.2,3.9,11.2c4.2,2,9.2,0.3,11.2-3.9
			C213.1,475.1,211.3,470.1,207.2,468.1z"/>
		<path class="st1" d="M153.2,433.3c-3.6,2.9-4.2,8.1-1.3,11.8c2.9,3.6,8.1,4.2,11.8,1.3c3.6-2.9,4.2-8.1,1.3-11.8
			C162.1,430.9,156.8,430.4,153.2,433.3z"/>
		<path class="st1" d="M131.5,379.8c-4.5,1-7.3,5.5-6.3,10c1,4.5,5.5,7.3,10,6.3c4.5-1,7.3-5.5,6.3-10
			C140.5,381.5,136,378.7,131.5,379.8z"/>
		<path class="st1" d="M179.4,385.1c-1.6-5-7-7.7-11.9-6.1c-5,1.6-7.7,7-6.1,11.9c1.6,5,7,7.7,11.9,6.1
			C178.4,395.4,181.1,390.1,179.4,385.1L179.4,385.1z"/>
		<path class="st1" d="M210.2,427.2c-4.2-3.1-10.2-2.1-13.2,2.1c-3.1,4.2-2.1,10.2,2.1,13.2c4.2,3.1,10.2,2.1,13.2-2.1
			C215.3,436.2,214.4,430.3,210.2,427.2z"/>
		<path class="st1" d="M297.7,337c3.1,5.3,9.9,7.1,15.2,4c5.3-3.1,7.1-9.9,4-15.2v0c-3.1-5.3-9.9-7.1-15.2-4
			C296.5,324.8,294.7,331.7,297.7,337L297.7,337z"/>
		<path class="st1" d="M202.2,326c-3.1,5.3-1.2,12.1,4.1,15.2c5.3,3.1,12.1,1.2,15.2-4.1c3.1-5.3,1.2-12.1-4.1-15.2
			C212.1,318.9,205.3,320.7,202.2,326z"/>
		<path class="st1" d="M259.6,314.8L259.6,314.8c6.1,0,11.1-5,11.1-11.2c0-6.1-5-11.1-11.2-11.1v0c-6.1,0-11.1,5-11.1,11.2
			C248.4,309.8,253.4,314.8,259.6,314.8z"/>
		<path class="st1" d="M221.5,380.8c-3.1-5.3-9.9-7.1-15.2-4c-5.3,3.1-7.1,9.9-4,15.2v0c3.1,5.3,9.9,7.1,15.2,4
			C222.8,392.9,224.6,386.1,221.5,380.8L221.5,380.8z"/>
	</g>
</g>
<g id="iNet_Red">
</g>
</svg>
